<svg xmlns="http://www.w3.org/2000/svg" width="840" height="400" viewBox="0 0 840 400" role="img" aria-label="Contribution Graph: 1035 contributions · 15 Aug 2026 – 14 Sep 2026">
  <defs>
    <linearGradient id="area" x1="0" y1="0" x2="0" y2="1">
      <stop offset="0%" stop-color="#2dd4bf" stop-opacity="0.36" />
      <stop offset="100%" stop-color="#2dd4bf" stop-opacity="0.02" />
    </linearGradient>
  </defs>
  <rect width="840" height="400" rx="6" fill="#0f172a" />
  <text x="62" y="38" fill="#67e8f9" font-family="Segoe UI, Ubuntu, sans-serif" font-size="20" font-weight="600">Contribution Graph</text>
  <text x="62" y="58" fill="#94a3b8" font-family="Segoe UI, Ubuntu, sans-serif" font-size="12">1035 contributions · 15 Aug 2026 – 14 Sep 2026</text>
  <line x1="62" y1="348.00" x2="812" y2="348.00" stroke="#1e293b" stroke-width="1" />
  <text x="50" y="352.00" fill="#94a3b8" font-family="Segoe UI, Ubuntu, sans-serif" font-size="11" text-anchor="end">0</text>
  <line x1="62" y1="256.67" x2="812" y2="256.67" stroke="#1e293b" stroke-width="1" />
  <text x="50" y="260.67" fill="#94a3b8" font-family="Segoe UI, Ubuntu, sans-serif" font-size="11" text-anchor="end">50</text>
  <line x1="62" y1="165.33" x2="812" y2="165.33" stroke="#1e293b" stroke-width="1" />
  <text x="50" y="169.33" fill="#94a3b8" font-family="Segoe UI, Ubuntu, sans-serif" font-size="11" text-anchor="end">100</text>
  <line x1="62" y1="74.00" x2="812" y2="74.00" stroke="#1e293b" stroke-width="1" />
  <text x="50" y="78.00" fill="#94a3b8" font-family="Segoe UI, Ubuntu, sans-serif" font-size="11" text-anchor="end">150</text>
  <path d="M 62.00 302.33 C 70.33 288.94, 78.67 284.37, 87.00 262.15 C 95.33 239.92, 103.67 168.99, 112.00 168.99 C 120.33 168.99, 128.67 346.17, 137.00 346.17 C 145.33 346.17, 153.67 333.39, 162.00 329.73 C 170.33 326.08, 178.67 326.99, 187.00 324.25 C 195.33 321.51, 203.67 318.47, 212.00 313.29 C 220.33 308.12, 228.67 295.50, 237.00 293.20 C 245.33 290.90, 253.67 292.38, 262.00 289.55 C 270.33 286.71, 278.67 263.97, 287.00 263.97 C 295.33 263.97, 303.67 337.04, 312.00 337.04 C 320.33 337.04, 328.67 315.12, 337.00 315.12 C 345.33 315.12, 353.67 315.12, 362.00 316.95 C 370.33 318.77, 378.67 329.73, 387.00 329.73 C 395.33 329.73, 403.67 101.40, 412.00 101.40 C 420.33 101.40, 428.67 309.64, 437.00 309.64 C 445.33 309.64, 453.67 295.03, 462.00 295.03 C 470.33 295.03, 478.67 309.64, 487.00 309.64 C 495.33 309.64, 503.67 262.15, 512.00 262.15 C 520.33 262.15, 528.67 280.41, 537.00 280.41 C 545.33 280.41, 553.67 280.41, 562.00 256.67 C 570.33 232.92, 578.67 123.32, 587.00 123.32 C 595.33 123.32, 603.67 156.20, 612.00 192.73 C 620.33 229.27, 628.67 342.52, 637.00 342.52 C 645.33 342.52, 653.67 245.71, 662.00 245.71 C 670.33 245.71, 678.67 296.55, 687.00 313.29 C 695.33 330.04, 703.67 346.17, 712.00 346.17 C 720.33 346.17, 728.67 324.56, 737.00 318.77 C 745.33 312.99, 753.67 311.47, 762.00 311.47 C 770.33 311.47, 778.67 348.00, 787.00 348.00 C 795.33 348.00, 803.67 348.00, 812.00 348.00 L 812.00 348 L 62.00 348 Z" fill="url(#area)" />
  <path d="M 62.00 302.33 C 70.33 288.94, 78.67 284.37, 87.00 262.15 C 95.33 239.92, 103.67 168.99, 112.00 168.99 C 120.33 168.99, 128.67 346.17, 137.00 346.17 C 145.33 346.17, 153.67 333.39, 162.00 329.73 C 170.33 326.08, 178.67 326.99, 187.00 324.25 C 195.33 321.51, 203.67 318.47, 212.00 313.29 C 220.33 308.12, 228.67 295.50, 237.00 293.20 C 245.33 290.90, 253.67 292.38, 262.00 289.55 C 270.33 286.71, 278.67 263.97, 287.00 263.97 C 295.33 263.97, 303.67 337.04, 312.00 337.04 C 320.33 337.04, 328.67 315.12, 337.00 315.12 C 345.33 315.12, 353.67 315.12, 362.00 316.95 C 370.33 318.77, 378.67 329.73, 387.00 329.73 C 395.33 329.73, 403.67 101.40, 412.00 101.40 C 420.33 101.40, 428.67 309.64, 437.00 309.64 C 445.33 309.64, 453.67 295.03, 462.00 295.03 C 470.33 295.03, 478.67 309.64, 487.00 309.64 C 495.33 309.64, 503.67 262.15, 512.00 262.15 C 520.33 262.15, 528.67 280.41, 537.00 280.41 C 545.33 280.41, 553.67 280.41, 562.00 256.67 C 570.33 232.92, 578.67 123.32, 587.00 123.32 C 595.33 123.32, 603.67 156.20, 612.00 192.73 C 620.33 229.27, 628.67 342.52, 637.00 342.52 C 645.33 342.52, 653.67 245.71, 662.00 245.71 C 670.33 245.71, 678.67 296.55, 687.00 313.29 C 695.33 330.04, 703.67 346.17, 712.00 346.17 C 720.33 346.17, 728.67 324.56, 737.00 318.77 C 745.33 312.99, 753.67 311.47, 762.00 311.47 C 770.33 311.47, 778.67 348.00, 787.00 348.00 C 795.33 348.00, 803.67 348.00, 812.00 348.00" fill="none" stroke="#2dd4bf" stroke-width="2.4" stroke-linecap="round" stroke-linejoin="round" />
  <circle cx="62.00" cy="302.33" r="2.6" fill="#f59e0b" />
  <text x="62.00" y="372.00" fill="#94a3b8" font-family="Segoe UI, Ubuntu, sans-serif" font-size="11" text-anchor="middle">15 Aug</text>
  <circle cx="87.00" cy="262.15" r="2.6" fill="#f59e0b" />
  <circle cx="112.00" cy="168.99" r="2.6" fill="#f59e0b" />
  <circle cx="137.00" cy="346.17" r="2.6" fill="#f59e0b" />
  <circle cx="162.00" cy="329.73" r="2.6" fill="#f59e0b" />
  <text x="162.00" y="372.00" fill="#94a3b8" font-family="Segoe UI, Ubuntu, sans-serif" font-size="11" text-anchor="middle">19 Aug</text>
  <circle cx="187.00" cy="324.25" r="2.6" fill="#f59e0b" />
  <circle cx="212.00" cy="313.29" r="2.6" fill="#f59e0b" />
  <circle cx="237.00" cy="293.20" r="2.6" fill="#f59e0b" />
  <circle cx="262.00" cy="289.55" r="2.6" fill="#f59e0b" />
  <text x="262.00" y="372.00" fill="#94a3b8" font-family="Segoe UI, Ubuntu, sans-serif" font-size="11" text-anchor="middle">23 Aug</text>
  <circle cx="287.00" cy="263.97" r="2.6" fill="#f59e0b" />
  <circle cx="312.00" cy="337.04" r="2.6" fill="#f59e0b" />
  <circle cx="337.00" cy="315.12" r="2.6" fill="#f59e0b" />
  <circle cx="362.00" cy="316.95" r="2.6" fill="#f59e0b" />
  <text x="362.00" y="372.00" fill="#94a3b8" font-family="Segoe UI, Ubuntu, sans-serif" font-size="11" text-anchor="middle">27 Aug</text>
  <circle cx="387.00" cy="329.73" r="2.6" fill="#f59e0b" />
  <circle cx="412.00" cy="101.40" r="2.6" fill="#f59e0b" />
  <circle cx="437.00" cy="309.64" r="2.6" fill="#f59e0b" />
  <circle cx="462.00" cy="295.03" r="2.6" fill="#f59e0b" />
  <text x="462.00" y="372.00" fill="#94a3b8" font-family="Segoe UI, Ubuntu, sans-serif" font-size="11" text-anchor="middle">31 Aug</text>
  <circle cx="487.00" cy="309.64" r="2.6" fill="#f59e0b" />
  <circle cx="512.00" cy="262.15" r="2.6" fill="#f59e0b" />
  <circle cx="537.00" cy="280.41" r="2.6" fill="#f59e0b" />
  <circle cx="562.00" cy="256.67" r="2.6" fill="#f59e0b" />
  <text x="562.00" y="372.00" fill="#94a3b8" font-family="Segoe UI, Ubuntu, sans-serif" font-size="11" text-anchor="middle">04 Sep</text>
  <circle cx="587.00" cy="123.32" r="2.6" fill="#f59e0b" />
  <circle cx="612.00" cy="192.73" r="2.6" fill="#f59e0b" />
  <circle cx="637.00" cy="342.52" r="2.6" fill="#f59e0b" />
  <circle cx="662.00" cy="245.71" r="2.6" fill="#f59e0b" />
  <text x="662.00" y="372.00" fill="#94a3b8" font-family="Segoe UI, Ubuntu, sans-serif" font-size="11" text-anchor="middle">08 Sep</text>
  <circle cx="687.00" cy="313.29" r="2.6" fill="#f59e0b" />
  <circle cx="712.00" cy="346.17" r="2.6" fill="#f59e0b" />
  <circle cx="737.00" cy="318.77" r="2.6" fill="#f59e0b" />
  <circle cx="762.00" cy="311.47" r="2.6" fill="#f59e0b" />
  <text x="762.00" y="372.00" fill="#94a3b8" font-family="Segoe UI, Ubuntu, sans-serif" font-size="11" text-anchor="middle">12 Sep</text>
  <circle cx="787.00" cy="348.00" r="2.6" fill="#f59e0b" />
  <circle cx="812.00" cy="348.00" r="2.6" fill="#f59e0b" />
  <text x="812.00" y="372.00" fill="#94a3b8" font-family="Segoe UI, Ubuntu, sans-serif" font-size="11" text-anchor="middle">14 Sep</text>
</svg>
