<svg xmlns="http://www.w3.org/2000/svg" width="840" height="400" viewBox="0 0 840 400" role="img" aria-label="Contribution Graph: 216 contributions · 09 Sep 2026 – 09 Oct 2026">
  <defs>
    <linearGradient id="area" x1="0" y1="0" x2="0" y2="1">
      <stop offset="0%" stop-color="#2dd4bf" stop-opacity="0.36" />
      <stop offset="100%" stop-color="#2dd4bf" stop-opacity="0.02" />
    </linearGradient>
  </defs>
  <rect width="840" height="400" rx="6" fill="#0f172a" />
  <text x="62" y="38" fill="#67e8f9" font-family="Segoe UI, Ubuntu, sans-serif" font-size="20" font-weight="600">Contribution Graph</text>
  <text x="62" y="58" fill="#94a3b8" font-family="Segoe UI, Ubuntu, sans-serif" font-size="12">216 contributions · 09 Sep 2026 – 09 Oct 2026</text>
  <line x1="62" y1="348.00" x2="812" y2="348.00" stroke="#1e293b" stroke-width="1" />
  <text x="50" y="352.00" fill="#94a3b8" font-family="Segoe UI, Ubuntu, sans-serif" font-size="11" text-anchor="end">0</text>
  <line x1="62" y1="279.50" x2="812" y2="279.50" stroke="#1e293b" stroke-width="1" />
  <text x="50" y="283.50" fill="#94a3b8" font-family="Segoe UI, Ubuntu, sans-serif" font-size="11" text-anchor="end">10</text>
  <line x1="62" y1="211.00" x2="812" y2="211.00" stroke="#1e293b" stroke-width="1" />
  <text x="50" y="215.00" fill="#94a3b8" font-family="Segoe UI, Ubuntu, sans-serif" font-size="11" text-anchor="end">20</text>
  <line x1="62" y1="142.50" x2="812" y2="142.50" stroke="#1e293b" stroke-width="1" />
  <text x="50" y="146.50" fill="#94a3b8" font-family="Segoe UI, Ubuntu, sans-serif" font-size="11" text-anchor="end">30</text>
  <line x1="62" y1="74.00" x2="812" y2="74.00" stroke="#1e293b" stroke-width="1" />
  <text x="50" y="78.00" fill="#94a3b8" font-family="Segoe UI, Ubuntu, sans-serif" font-size="11" text-anchor="end">40</text>
  <path d="M 62.00 245.25 C 70.33 277.22, 78.67 341.15, 87.00 341.15 C 95.33 341.15, 103.67 271.51, 112.00 252.10 C 120.33 232.69, 128.67 224.70, 137.00 224.70 C 145.33 224.70, 153.67 348.00, 162.00 348.00 C 170.33 348.00, 178.67 348.00, 187.00 348.00 C 195.33 348.00, 203.67 341.15, 212.00 341.15 C 220.33 341.15, 228.67 348.00, 237.00 348.00 C 245.33 348.00, 253.67 313.75, 262.00 313.75 C 270.33 313.75, 278.67 348.00, 287.00 348.00 C 295.33 348.00, 303.67 197.30, 312.00 197.30 C 320.33 197.30, 328.67 246.40, 337.00 252.10 C 345.33 257.80, 353.67 255.15, 362.00 258.95 C 370.33 262.75, 378.67 293.20, 387.00 293.20 C 395.33 293.20, 403.67 293.20, 412.00 293.20 C 420.33 293.20, 428.67 348.00, 437.00 348.00 C 445.33 348.00, 453.67 348.00, 462.00 348.00 C 470.33 348.00, 478.67 348.00, 487.00 348.00 C 495.33 348.00, 503.67 348.00, 512.00 348.00 C 520.33 348.00, 528.67 348.00, 537.00 348.00 C 545.33 348.00, 553.67 348.00, 562.00 348.00 C 570.33 348.00, 578.67 321.74, 587.00 313.75 C 595.33 305.76, 603.67 300.05, 612.00 300.05 C 620.33 300.05, 628.67 320.60, 637.00 320.60 C 645.33 320.60, 653.67 135.65, 662.00 135.65 C 670.33 135.65, 678.67 180.17, 687.00 211.00 C 695.33 241.83, 703.67 320.60, 712.00 320.60 C 720.33 320.60, 728.67 313.75, 737.00 306.90 C 745.33 300.05, 753.67 279.50, 762.00 279.50 C 770.33 279.50, 778.67 279.50, 787.00 279.50 C 795.33 279.50, 803.67 325.17, 812.00 348.00 L 812.00 348 L 62.00 348 Z" fill="url(#area)" />
  <path d="M 62.00 245.25 C 70.33 277.22, 78.67 341.15, 87.00 341.15 C 95.33 341.15, 103.67 271.51, 112.00 252.10 C 120.33 232.69, 128.67 224.70, 137.00 224.70 C 145.33 224.70, 153.67 348.00, 162.00 348.00 C 170.33 348.00, 178.67 348.00, 187.00 348.00 C 195.33 348.00, 203.67 341.15, 212.00 341.15 C 220.33 341.15, 228.67 348.00, 237.00 348.00 C 245.33 348.00, 253.67 313.75, 262.00 313.75 C 270.33 313.75, 278.67 348.00, 287.00 348.00 C 295.33 348.00, 303.67 197.30, 312.00 197.30 C 320.33 197.30, 328.67 246.40, 337.00 252.10 C 345.33 257.80, 353.67 255.15, 362.00 258.95 C 370.33 262.75, 378.67 293.20, 387.00 293.20 C 395.33 293.20, 403.67 293.20, 412.00 293.20 C 420.33 293.20, 428.67 348.00, 437.00 348.00 C 445.33 348.00, 453.67 348.00, 462.00 348.00 C 470.33 348.00, 478.67 348.00, 487.00 348.00 C 495.33 348.00, 503.67 348.00, 512.00 348.00 C 520.33 348.00, 528.67 348.00, 537.00 348.00 C 545.33 348.00, 553.67 348.00, 562.00 348.00 C 570.33 348.00, 578.67 321.74, 587.00 313.75 C 595.33 305.76, 603.67 300.05, 612.00 300.05 C 620.33 300.05, 628.67 320.60, 637.00 320.60 C 645.33 320.60, 653.67 135.65, 662.00 135.65 C 670.33 135.65, 678.67 180.17, 687.00 211.00 C 695.33 241.83, 703.67 320.60, 712.00 320.60 C 720.33 320.60, 728.67 313.75, 737.00 306.90 C 745.33 300.05, 753.67 279.50, 762.00 279.50 C 770.33 279.50, 778.67 279.50, 787.00 279.50 C 795.33 279.50, 803.67 325.17, 812.00 348.00" fill="none" stroke="#2dd4bf" stroke-width="2.4" stroke-linecap="round" stroke-linejoin="round" />
  <circle cx="62.00" cy="245.25" r="2.6" fill="#f59e0b" />
  <text x="62.00" y="372.00" fill="#94a3b8" font-family="Segoe UI, Ubuntu, sans-serif" font-size="11" text-anchor="middle">09 Sep</text>
  <circle cx="87.00" cy="341.15" r="2.6" fill="#f59e0b" />
  <circle cx="112.00" cy="252.10" r="2.6" fill="#f59e0b" />
  <circle cx="137.00" cy="224.70" r="2.6" fill="#f59e0b" />
  <circle cx="162.00" cy="348.00" r="2.6" fill="#f59e0b" />
  <text x="162.00" y="372.00" fill="#94a3b8" font-family="Segoe UI, Ubuntu, sans-serif" font-size="11" text-anchor="middle">13 Sep</text>
  <circle cx="187.00" cy="348.00" r="2.6" fill="#f59e0b" />
  <circle cx="212.00" cy="341.15" r="2.6" fill="#f59e0b" />
  <circle cx="237.00" cy="348.00" r="2.6" fill="#f59e0b" />
  <circle cx="262.00" cy="313.75" r="2.6" fill="#f59e0b" />
  <text x="262.00" y="372.00" fill="#94a3b8" font-family="Segoe UI, Ubuntu, sans-serif" font-size="11" text-anchor="middle">17 Sep</text>
  <circle cx="287.00" cy="348.00" r="2.6" fill="#f59e0b" />
  <circle cx="312.00" cy="197.30" r="2.6" fill="#f59e0b" />
  <circle cx="337.00" cy="252.10" r="2.6" fill="#f59e0b" />
  <circle cx="362.00" cy="258.95" r="2.6" fill="#f59e0b" />
  <text x="362.00" y="372.00" fill="#94a3b8" font-family="Segoe UI, Ubuntu, sans-serif" font-size="11" text-anchor="middle">21 Sep</text>
  <circle cx="387.00" cy="293.20" r="2.6" fill="#f59e0b" />
  <circle cx="412.00" cy="293.20" r="2.6" fill="#f59e0b" />
  <circle cx="437.00" cy="348.00" r="2.6" fill="#f59e0b" />
  <circle cx="462.00" cy="348.00" r="2.6" fill="#f59e0b" />
  <text x="462.00" y="372.00" fill="#94a3b8" font-family="Segoe UI, Ubuntu, sans-serif" font-size="11" text-anchor="middle">25 Sep</text>
  <circle cx="487.00" cy="348.00" r="2.6" fill="#f59e0b" />
  <circle cx="512.00" cy="348.00" r="2.6" fill="#f59e0b" />
  <circle cx="537.00" cy="348.00" r="2.6" fill="#f59e0b" />
  <circle cx="562.00" cy="348.00" r="2.6" fill="#f59e0b" />
  <text x="562.00" y="372.00" fill="#94a3b8" font-family="Segoe UI, Ubuntu, sans-serif" font-size="11" text-anchor="middle">29 Sep</text>
  <circle cx="587.00" cy="313.75" r="2.6" fill="#f59e0b" />
  <circle cx="612.00" cy="300.05" r="2.6" fill="#f59e0b" />
  <circle cx="637.00" cy="320.60" r="2.6" fill="#f59e0b" />
  <circle cx="662.00" cy="135.65" r="2.6" fill="#f59e0b" />
  <text x="662.00" y="372.00" fill="#94a3b8" font-family="Segoe UI, Ubuntu, sans-serif" font-size="11" text-anchor="middle">03 Oct</text>
  <circle cx="687.00" cy="211.00" r="2.6" fill="#f59e0b" />
  <circle cx="712.00" cy="320.60" r="2.6" fill="#f59e0b" />
  <circle cx="737.00" cy="306.90" r="2.6" fill="#f59e0b" />
  <circle cx="762.00" cy="279.50" r="2.6" fill="#f59e0b" />
  <text x="762.00" y="372.00" fill="#94a3b8" font-family="Segoe UI, Ubuntu, sans-serif" font-size="11" text-anchor="middle">07 Oct</text>
  <circle cx="787.00" cy="279.50" r="2.6" fill="#f59e0b" />
  <circle cx="812.00" cy="348.00" r="2.6" fill="#f59e0b" />
  <text x="812.00" y="372.00" fill="#94a3b8" font-family="Segoe UI, Ubuntu, sans-serif" font-size="11" text-anchor="middle">09 Oct</text>
</svg>
